<svg width="176" height="18" viewBox="0 0 176 18" fill="none" xmlns="http://www.w3.org/2000/svg">
<path d="M26.9952 0L19.9375 18H25.9361L26.7901 15.6181H33.5547L34.4087 18H40.4073L33.3496 0H26.9952ZM28.1631 11.294L30.1766 5.67209L32.1901 11.294H28.1673H28.1631Z" fill="white"/>
<path d="M65.3775 11.16H73.5821V6.83581H65.3775V4.41209H73.67V0H59.6426V18H73.8458V13.5879H65.3775V11.16Z" fill="white"/>
<path d="M47.5532 11.834L43.3211 0H37.3184L44.3802 18H50.7305L57.7881 0H51.7895L47.5532 11.834Z" fill="white"/>
<path d="M12.2651 9.63209L5.55907 0H0V18H5.82279V8.36372L12.5288 18H18.0879V0H12.2651V9.63209Z" fill="white"/>
<path d="M89.2345 11.8256L89.7787 11.5953C91.8717 10.7205 92.9349 8.82419 92.9349 6.4214C92.9349 4.14837 92.1061 2.46558 90.4694 1.42326C88.9498 0.452093 86.9782 0 84.2656 0H76.668V18H82.3149V12.9726H84.3452L87.7861 18H93.7847L89.2345 11.8256ZM85.3163 8.38047H82.227V4.58791H85.3163C86.3629 4.58791 87.2126 5.43767 87.2126 6.48419C87.2126 7.5307 86.3629 8.38047 85.3163 8.38047Z" fill="white"/>
<path d="M102.248 18H116.188L118.142 13.0186H108.113V0H102.248V18Z" fill="white"/>
<path d="M125.812 0L118.754 18H124.753L125.606 15.6181H132.371L133.225 18H139.224L132.166 0H125.812ZM126.975 11.294L128.989 5.67209L131.002 11.294H126.979H126.975Z" fill="white"/>
<path d="M154.047 8.78651C154.047 8.78651 154.151 8.75302 154.377 8.64419C155.964 7.95349 156.663 6.82744 156.663 4.52512C156.663 3.11023 156.16 1.9507 155.269 1.15953C154.457 0.435349 153.197 0 151.527 0H140.902V18H152.171C153.741 18 155.03 17.6651 155.775 16.92C156.6 16.0953 157.14 14.9651 157.14 13.1902C157.14 10.1972 155.742 9.63628 154.599 9.04186C154.231 8.8493 154.051 8.78651 154.051 8.78651H154.047ZM146.428 4.22791H149.63C150.124 4.22791 150.434 4.32837 150.639 4.53349C150.89 4.78465 151.028 5.14884 151.028 5.56744C151.028 6.27488 150.777 6.83163 150.262 6.99907C150.212 7.01581 150.011 7.04512 149.944 7.04093H146.424V4.23209L146.428 4.22791ZM151.054 13.4079C150.802 13.6591 150.405 13.7721 149.881 13.7721H146.432V10.6912H149.886C149.915 10.6912 149.957 10.6912 149.982 10.6912C150.087 10.6912 150.158 10.6828 150.451 10.7079C151.167 10.8 151.531 11.3233 151.51 12.1563C151.51 12.7507 151.33 13.1316 151.054 13.4079Z" fill="white"/>
<path d="M171.197 8.4014C173.478 9.33488 174.5 10.9172 174.5 13.0395V13.5126C174.5 15.9865 172.239 17.9958 169.765 17.9958H159.246V13.1944H168.443C168.74 13.1944 168.983 12.9516 168.983 12.6502C168.983 12.4158 168.903 12.2609 168.631 12.1437L162.063 9.4814C160.196 8.72372 158.957 6.98651 158.957 4.91023V4.47488C158.957 2.00512 160.795 0 163.269 0H174.387L172.503 4.8014H164.688C164.432 4.8014 164.227 5.0107 164.227 5.26186C164.227 5.44605 164.336 5.61349 164.529 5.69302L171.197 8.39721V8.4014Z" fill="white"/>
</svg>
